# xmcd CD database file
# Copyright (C) 1997 Ti Kan
# 
# Track frame offsets:
#     150
#     14502
#     28140
#     39240
#     53325
#     65757
#     78402
#     90255
#     109015
#     125932
#     139412
#     155255
#     167485
#     182135
#     195762
#     211225
# 
# Disc length: 3006 seconds
# 
# Revision: 1
# Processed by: cddbd v1.4b41PL1 Copyright (c) Steve Scherf et al.
# Submitted via: DiscPlay 4.0.4
# 
DISCID=cd0bbc10
DTITLE=Z.Z. Hill - The Complete Records Collection - UA Recordings, 1972-197
DTITLE=5 [CD2]
DYEAR=1900
DGENRE=
TTITLE0=Bad Mouth And Gossip
TTITLE1=Clean Up America
TTITLE2=Country Love
TTITLE3=The Best I Ever Had
TTITLE4=Two Wrongs Don't Make A Right
TTITLE5=You're Killing Me (Slowly But Surely)
TTITLE6=Funny Face
TTITLE7=I Created A Monster
TTITLE8=That Ain't The Way You Make Love
TTITLE9=Steppin' In The Shoes Of A Fool
TTITLE10=Two Sides To Every Story
TTITLE11=I Keep On Lovin' You
TTITLE12=Whoever's Thrilling You (Is Killing Me)
TTITLE13=Look What You've Done
TTITLE14=My Turn
TTITLE15=I Don't Need Half A Love
EXTD=
EXTT0=
EXTT1=
EXTT2=
EXTT3=
EXTT4=
EXTT5=
EXTT6=
EXTT7=
EXTT8=
EXTT9=
EXTT10=
EXTT11=
EXTT12=
EXTT13=
EXTT14=
EXTT15=
PLAYORDER=
